<mxfile host="app.diagrams.net" modified="2024-01-22T11:38:28.239Z" agent="Mozilla/5.0 (Macintosh; Intel Mac OS X 10_15_7) AppleWebKit/537.36 (KHTML, like Gecko) Chrome/120.0.0.0 Safari/537.36" etag="NPhtT_D9PLc0__C4Zd-w" version="22.1.21" type="github">
  <diagram name="Page-1" id="_df5LQXNRFSoWel__wSC">
    <mxGraphModel dx="1947" dy="835" grid="1" gridSize="10" guides="1" tooltips="1" connect="1" arrows="1" fold="1" page="1" pageScale="1" pageWidth="827" pageHeight="1169" math="0" shadow="0">
      <root>
        <mxCell id="0" />
        <mxCell id="1" parent="0" />
        <mxCell id="FuUWSDyZ6F-eLyP30ZwY-1" value="UAC" style="rounded=1;whiteSpace=wrap;html=1;" vertex="1" parent="1">
          <mxGeometry x="120" y="105" width="520" height="50" as="geometry" />
        </mxCell>
        <mxCell id="FuUWSDyZ6F-eLyP30ZwY-3" value="SSO" style="rounded=1;whiteSpace=wrap;html=1;" vertex="1" parent="1">
          <mxGeometry x="120" y="40" width="90" height="50" as="geometry" />
        </mxCell>
        <mxCell id="FuUWSDyZ6F-eLyP30ZwY-4" value="优选" style="rounded=1;whiteSpace=wrap;html=1;" vertex="1" parent="1">
          <mxGeometry x="230" y="40" width="90" height="50" as="geometry" />
        </mxCell>
        <mxCell id="FuUWSDyZ6F-eLyP30ZwY-5" value="外卖" style="rounded=1;whiteSpace=wrap;html=1;" vertex="1" parent="1">
          <mxGeometry x="335" y="40" width="90" height="50" as="geometry" />
        </mxCell>
        <mxCell id="FuUWSDyZ6F-eLyP30ZwY-6" value="配送" style="rounded=1;whiteSpace=wrap;html=1;" vertex="1" parent="1">
          <mxGeometry x="440" y="40" width="90" height="50" as="geometry" />
        </mxCell>
        <mxCell id="FuUWSDyZ6F-eLyP30ZwY-7" value="......" style="rounded=1;whiteSpace=wrap;html=1;" vertex="1" parent="1">
          <mxGeometry x="550" y="40" width="90" height="50" as="geometry" />
        </mxCell>
        <mxCell id="FuUWSDyZ6F-eLyP30ZwY-9" value="信安" style="shape=umlActor;verticalLabelPosition=bottom;verticalAlign=top;html=1;outlineConnect=0;" vertex="1" parent="1">
          <mxGeometry x="150" y="280" width="30" height="60" as="geometry" />
        </mxCell>
        <mxCell id="FuUWSDyZ6F-eLyP30ZwY-10" value="统一规则" style="rounded=1;whiteSpace=wrap;html=1;" vertex="1" parent="1">
          <mxGeometry x="120" y="370" width="90" height="50" as="geometry" />
        </mxCell>
        <mxCell id="FuUWSDyZ6F-eLyP30ZwY-11" value="应用规则" style="rounded=1;whiteSpace=wrap;html=1;" vertex="1" parent="1">
          <mxGeometry x="320" y="370" width="90" height="50" as="geometry" />
        </mxCell>
        <mxCell id="FuUWSDyZ6F-eLyP30ZwY-12" value="业务管理员" style="shape=umlActor;verticalLabelPosition=bottom;verticalAlign=top;html=1;outlineConnect=0;" vertex="1" parent="1">
          <mxGeometry x="350" y="280" width="30" height="60" as="geometry" />
        </mxCell>
        <mxCell id="FuUWSDyZ6F-eLyP30ZwY-13" value="应用 SSO" style="rounded=1;whiteSpace=wrap;html=1;" vertex="1" parent="1">
          <mxGeometry x="120" y="470" width="90" height="50" as="geometry" />
        </mxCell>
        <mxCell id="FuUWSDyZ6F-eLyP30ZwY-14" value="应用（业务）" style="rounded=1;whiteSpace=wrap;html=1;" vertex="1" parent="1">
          <mxGeometry x="324" y="470" width="90" height="50" as="geometry" />
        </mxCell>
        <mxCell id="FuUWSDyZ6F-eLyP30ZwY-18" value="" style="edgeStyle=orthogonalEdgeStyle;rounded=0;orthogonalLoop=1;jettySize=auto;html=1;endArrow=none;endFill=0;" edge="1" parent="1" source="FuUWSDyZ6F-eLyP30ZwY-16" target="FuUWSDyZ6F-eLyP30ZwY-17">
          <mxGeometry relative="1" as="geometry" />
        </mxCell>
        <mxCell id="FuUWSDyZ6F-eLyP30ZwY-22" value="" style="edgeStyle=orthogonalEdgeStyle;shape=connector;rounded=0;orthogonalLoop=1;jettySize=auto;html=1;labelBackgroundColor=default;strokeColor=default;align=center;verticalAlign=middle;fontFamily=Helvetica;fontSize=12;fontColor=default;endArrow=none;endFill=0;" edge="1" parent="1" source="FuUWSDyZ6F-eLyP30ZwY-16" target="FuUWSDyZ6F-eLyP30ZwY-21">
          <mxGeometry relative="1" as="geometry" />
        </mxCell>
        <mxCell id="FuUWSDyZ6F-eLyP30ZwY-24" value="" style="edgeStyle=orthogonalEdgeStyle;shape=connector;rounded=0;orthogonalLoop=1;jettySize=auto;html=1;labelBackgroundColor=default;strokeColor=default;align=center;verticalAlign=middle;fontFamily=Helvetica;fontSize=12;fontColor=default;endArrow=none;endFill=0;" edge="1" parent="1" source="FuUWSDyZ6F-eLyP30ZwY-16" target="FuUWSDyZ6F-eLyP30ZwY-23">
          <mxGeometry relative="1" as="geometry" />
        </mxCell>
        <mxCell id="FuUWSDyZ6F-eLyP30ZwY-34" style="edgeStyle=orthogonalEdgeStyle;shape=connector;rounded=0;orthogonalLoop=1;jettySize=auto;html=1;labelBackgroundColor=default;strokeColor=default;align=center;verticalAlign=middle;fontFamily=Helvetica;fontSize=12;fontColor=default;endArrow=none;endFill=0;dashed=1;" edge="1" parent="1" source="FuUWSDyZ6F-eLyP30ZwY-16" target="FuUWSDyZ6F-eLyP30ZwY-25">
          <mxGeometry relative="1" as="geometry" />
        </mxCell>
        <mxCell id="FuUWSDyZ6F-eLyP30ZwY-16" value="应用" style="rounded=1;whiteSpace=wrap;html=1;" vertex="1" parent="1">
          <mxGeometry x="170" y="810" width="90" height="50" as="geometry" />
        </mxCell>
        <mxCell id="FuUWSDyZ6F-eLyP30ZwY-32" style="edgeStyle=orthogonalEdgeStyle;shape=connector;rounded=0;orthogonalLoop=1;jettySize=auto;html=1;labelBackgroundColor=default;strokeColor=default;align=center;verticalAlign=middle;fontFamily=Helvetica;fontSize=12;fontColor=default;endArrow=none;endFill=0;dashed=1;" edge="1" parent="1" source="FuUWSDyZ6F-eLyP30ZwY-17" target="FuUWSDyZ6F-eLyP30ZwY-26">
          <mxGeometry relative="1" as="geometry" />
        </mxCell>
        <mxCell id="FuUWSDyZ6F-eLyP30ZwY-35" style="edgeStyle=orthogonalEdgeStyle;shape=connector;rounded=0;orthogonalLoop=1;jettySize=auto;html=1;dashed=1;labelBackgroundColor=default;strokeColor=default;align=center;verticalAlign=middle;fontFamily=Helvetica;fontSize=12;fontColor=default;endArrow=none;endFill=0;" edge="1" parent="1" source="FuUWSDyZ6F-eLyP30ZwY-17" target="FuUWSDyZ6F-eLyP30ZwY-30">
          <mxGeometry relative="1" as="geometry">
            <Array as="points">
              <mxPoint x="605" y="835" />
            </Array>
          </mxGeometry>
        </mxCell>
        <mxCell id="FuUWSDyZ6F-eLyP30ZwY-17" value="动态组" style="rounded=1;whiteSpace=wrap;html=1;" vertex="1" parent="1">
          <mxGeometry x="420" y="810" width="90" height="50" as="geometry" />
        </mxCell>
        <mxCell id="FuUWSDyZ6F-eLyP30ZwY-38" style="edgeStyle=orthogonalEdgeStyle;shape=connector;rounded=0;orthogonalLoop=1;jettySize=auto;html=1;dashed=1;labelBackgroundColor=default;strokeColor=default;align=center;verticalAlign=middle;fontFamily=Helvetica;fontSize=12;fontColor=default;endArrow=none;endFill=0;" edge="1" parent="1" source="FuUWSDyZ6F-eLyP30ZwY-21" target="FuUWSDyZ6F-eLyP30ZwY-26">
          <mxGeometry relative="1" as="geometry">
            <Array as="points">
              <mxPoint x="55" y="1110" />
              <mxPoint x="460" y="1110" />
            </Array>
          </mxGeometry>
        </mxCell>
        <mxCell id="FuUWSDyZ6F-eLyP30ZwY-21" value="固定用户组" style="rounded=1;whiteSpace=wrap;html=1;" vertex="1" parent="1">
          <mxGeometry x="10" y="810" width="90" height="50" as="geometry" />
        </mxCell>
        <mxCell id="FuUWSDyZ6F-eLyP30ZwY-23" value="公共用户组&lt;br&gt;引用" style="rounded=1;whiteSpace=wrap;html=1;" vertex="1" parent="1">
          <mxGeometry x="170" y="680" width="90" height="50" as="geometry" />
        </mxCell>
        <mxCell id="FuUWSDyZ6F-eLyP30ZwY-27" value="" style="edgeStyle=orthogonalEdgeStyle;shape=connector;rounded=0;orthogonalLoop=1;jettySize=auto;html=1;labelBackgroundColor=default;strokeColor=default;align=center;verticalAlign=middle;fontFamily=Helvetica;fontSize=12;fontColor=default;endArrow=none;endFill=0;" edge="1" parent="1" source="FuUWSDyZ6F-eLyP30ZwY-25" target="FuUWSDyZ6F-eLyP30ZwY-26">
          <mxGeometry relative="1" as="geometry" />
        </mxCell>
        <mxCell id="FuUWSDyZ6F-eLyP30ZwY-25" value="业务应用" style="rounded=1;whiteSpace=wrap;html=1;" vertex="1" parent="1">
          <mxGeometry x="170" y="980" width="90" height="50" as="geometry" />
        </mxCell>
        <mxCell id="FuUWSDyZ6F-eLyP30ZwY-31" value="" style="edgeStyle=orthogonalEdgeStyle;shape=connector;rounded=0;orthogonalLoop=1;jettySize=auto;html=1;labelBackgroundColor=default;strokeColor=default;align=center;verticalAlign=middle;fontFamily=Helvetica;fontSize=12;fontColor=default;endArrow=none;endFill=0;" edge="1" parent="1" source="FuUWSDyZ6F-eLyP30ZwY-26" target="FuUWSDyZ6F-eLyP30ZwY-30">
          <mxGeometry relative="1" as="geometry" />
        </mxCell>
        <mxCell id="FuUWSDyZ6F-eLyP30ZwY-26" value="角色" style="rounded=1;whiteSpace=wrap;html=1;" vertex="1" parent="1">
          <mxGeometry x="420" y="980" width="90" height="50" as="geometry" />
        </mxCell>
        <mxCell id="FuUWSDyZ6F-eLyP30ZwY-30" value="动态组" style="rounded=1;whiteSpace=wrap;html=1;" vertex="1" parent="1">
          <mxGeometry x="560" y="980" width="90" height="50" as="geometry" />
        </mxCell>
        <mxCell id="FuUWSDyZ6F-eLyP30ZwY-39" value="映射为一个特殊的角色" style="text;html=1;strokeColor=none;fillColor=none;align=center;verticalAlign=middle;whiteSpace=wrap;rounded=0;fontSize=12;fontFamily=Helvetica;fontColor=default;" vertex="1" parent="1">
          <mxGeometry x="60" y="900" width="60" height="30" as="geometry" />
        </mxCell>
        <mxCell id="FuUWSDyZ6F-eLyP30ZwY-52" value="" style="edgeStyle=orthogonalEdgeStyle;shape=connector;rounded=0;orthogonalLoop=1;jettySize=auto;html=1;labelBackgroundColor=default;strokeColor=default;align=center;verticalAlign=middle;fontFamily=Helvetica;fontSize=12;fontColor=default;endArrow=none;endFill=0;" edge="1" parent="1" source="FuUWSDyZ6F-eLyP30ZwY-43" target="FuUWSDyZ6F-eLyP30ZwY-51">
          <mxGeometry relative="1" as="geometry" />
        </mxCell>
        <mxCell id="FuUWSDyZ6F-eLyP30ZwY-43" value="共享角色&lt;br&gt;（主应用）" style="rounded=1;whiteSpace=wrap;html=1;" vertex="1" parent="1">
          <mxGeometry x="-240" y="980" width="90" height="50" as="geometry" />
        </mxCell>
        <mxCell id="FuUWSDyZ6F-eLyP30ZwY-47" style="edgeStyle=orthogonalEdgeStyle;shape=connector;rounded=0;orthogonalLoop=1;jettySize=auto;html=1;labelBackgroundColor=default;strokeColor=default;align=center;verticalAlign=middle;fontFamily=Helvetica;fontSize=12;fontColor=default;endArrow=none;endFill=0;" edge="1" parent="1" source="FuUWSDyZ6F-eLyP30ZwY-46" target="FuUWSDyZ6F-eLyP30ZwY-43">
          <mxGeometry relative="1" as="geometry" />
        </mxCell>
        <mxCell id="FuUWSDyZ6F-eLyP30ZwY-46" value="SSO应用&lt;br&gt;（主应用）" style="rounded=1;whiteSpace=wrap;html=1;" vertex="1" parent="1">
          <mxGeometry x="-240" y="1110" width="90" height="50" as="geometry" />
        </mxCell>
        <mxCell id="FuUWSDyZ6F-eLyP30ZwY-49" style="edgeStyle=orthogonalEdgeStyle;shape=connector;rounded=0;orthogonalLoop=1;jettySize=auto;html=1;labelBackgroundColor=default;strokeColor=default;align=center;verticalAlign=middle;fontFamily=Helvetica;fontSize=12;fontColor=default;endArrow=none;endFill=0;" edge="1" parent="1" source="FuUWSDyZ6F-eLyP30ZwY-48" target="FuUWSDyZ6F-eLyP30ZwY-23">
          <mxGeometry relative="1" as="geometry" />
        </mxCell>
        <mxCell id="FuUWSDyZ6F-eLyP30ZwY-50" style="edgeStyle=orthogonalEdgeStyle;shape=connector;rounded=0;orthogonalLoop=1;jettySize=auto;html=1;dashed=1;labelBackgroundColor=default;strokeColor=default;align=center;verticalAlign=middle;fontFamily=Helvetica;fontSize=12;fontColor=default;endArrow=none;endFill=0;" edge="1" parent="1" source="FuUWSDyZ6F-eLyP30ZwY-48" target="FuUWSDyZ6F-eLyP30ZwY-43">
          <mxGeometry relative="1" as="geometry" />
        </mxCell>
        <mxCell id="FuUWSDyZ6F-eLyP30ZwY-48" value="公共用户组" style="rounded=1;whiteSpace=wrap;html=1;" vertex="1" parent="1">
          <mxGeometry x="-240" y="680" width="90" height="50" as="geometry" />
        </mxCell>
        <mxCell id="FuUWSDyZ6F-eLyP30ZwY-53" style="edgeStyle=orthogonalEdgeStyle;shape=connector;rounded=0;orthogonalLoop=1;jettySize=auto;html=1;labelBackgroundColor=default;strokeColor=default;align=center;verticalAlign=middle;fontFamily=Helvetica;fontSize=12;fontColor=default;endArrow=none;endFill=0;" edge="1" parent="1" source="FuUWSDyZ6F-eLyP30ZwY-51" target="FuUWSDyZ6F-eLyP30ZwY-25">
          <mxGeometry relative="1" as="geometry" />
        </mxCell>
        <mxCell id="FuUWSDyZ6F-eLyP30ZwY-51" value="共享角色&lt;br&gt;（从应用）" style="rounded=1;whiteSpace=wrap;html=1;" vertex="1" parent="1">
          <mxGeometry x="-60" y="980" width="90" height="50" as="geometry" />
        </mxCell>
      </root>
    </mxGraphModel>
  </diagram>
</mxfile>
